<svg width="64" height="64" viewBox="0 0 64 64" fill="none" xmlns="http://www.w3.org/2000/svg">
<path d="M0 32C0 38.329 1.87677 44.5159 5.39297 49.7782C8.90918 55.0406 13.9069 59.1421 19.7541 61.5641C25.6014 63.9861 32.0355 64.6198 38.2429 63.3851C44.4503 62.1504 50.1521 59.1027 54.6274 54.6274C59.1027 50.1521 62.1504 44.4503 63.3851 38.2429C64.6198 32.0355 63.9861 25.6014 61.5641 19.7541C59.1421 13.9069 55.0406 8.90918 49.7782 5.39297C44.5159 1.87677 38.329 3.8147e-06 32 3.8147e-06C23.5131 3.8147e-06 15.3737 3.37142 9.37258 9.37258C3.37142 15.3737 0 23.5131 0 32ZM34.0567 12.4887L45.6931 24.1251C46.223 24.6738 46.5162 25.4086 46.5096 26.1713C46.503 26.9341 46.197 27.6637 45.6576 28.2031C45.1183 28.7425 44.3886 29.0484 43.6259 29.055C42.8631 29.0617 42.1283 28.7685 41.5796 28.2385L34.9091 21.568V49.4545C34.9091 50.2261 34.6026 50.966 34.057 51.5116C33.5115 52.0571 32.7715 52.3636 32 52.3636C31.2285 52.3636 30.4885 52.0571 29.943 51.5116C29.3974 50.966 29.0909 50.2261 29.0909 49.4545L29.0909 21.568L22.4204 28.2385C22.152 28.5164 21.831 28.738 21.4761 28.8905C21.1212 29.0429 20.7394 29.1232 20.3532 29.1265C19.9669 29.1299 19.5838 29.0563 19.2263 28.91C18.8688 28.7638 18.544 28.5477 18.2708 28.2746C17.9977 28.0015 17.7817 27.6767 17.6354 27.3191C17.4892 26.9616 17.4155 26.5786 17.4189 26.1923C17.4223 25.806 17.5025 25.4243 17.655 25.0694C17.8074 24.7144 18.0291 24.3934 18.3069 24.1251L29.9433 12.4887C30.4888 11.9434 31.2286 11.637 32 11.637C32.7714 11.637 33.5112 11.9434 34.0567 12.4887Z" fill="#2E14D2"/>
</svg>
