<svg width="120" height="120" viewBox="0 0 120 120" fill="none" xmlns="http://www.w3.org/2000/svg">
<path d="M112.5 97.125L112.125 29.625C112.125 27.375 110.25 25.875 108.375 25.875L60.375 26.25C58.875 26.25 57.75 23.625 57.75 22.5V22.125C57.75 19.875 55.875 18 53.625 18L28.125 18.375C26.25 18.375 24.375 19.875 24.375 22.125V22.5C24.375 23.625 23.25 26.25 21.75 26.25C19.875 26.25 18 28.125 18 30V49.5H9.75001C9.75001 49.5 6.00001 49.5 7.50001 53.625L16.5 97.5C16.5 99.75 18 101.625 20.25 101.625L110.25 100.875C112.875 101.25 112.5 97.125 112.5 97.125ZM107.625 54.75L108 99L99 51.75C98.25 49.125 95.25 49.5 95.25 49.5L22.875 49.875V34.875L107.625 34.125V54.75Z" fill="#2E14D2"/>
</svg>
