<svg width="70" height="65" viewBox="0 0 70 65" fill="none" xmlns="http://www.w3.org/2000/svg">
<g clip-path="url(#clip0_25_278)">
<path d="M68.8855 29.9552L34.9194 0.825684L0.954489 29.9552C0.476044 30.3664 0.447621 31.0588 0.892907 31.5018C1.33582 31.9437 2.08784 31.9688 2.56628 31.5586L7.68115 27.1715V30.7569V64.664H62.1576V30.7569V27.1715L67.2725 31.5586C67.4999 31.7544 67.79 31.8507 68.079 31.8507C68.3976 31.8507 68.7138 31.7336 68.9459 31.5018C69.3923 31.0588 69.3639 30.3664 68.8855 29.9552ZM31.3666 58.1013H17.1553V44.976H31.3666V58.1013ZM31.3666 38.4133H17.1553V25.288H31.3666V38.4133ZM52.6835 58.1013H38.4722V44.976H52.6835V58.1013ZM52.6835 38.4133H38.4722V25.288H52.6835V38.4133Z" fill="#2E14D2"/>
</g>
<defs>
<clipPath id="clip0_25_278">
<rect width="69.12" height="63.8383" fill="white" transform="translate(0.359985 0.825684)"/>
</clipPath>
</defs>
</svg>
