<svg width="150" height="186" viewBox="0 0 150 186" fill="none" xmlns="http://www.w3.org/2000/svg">
<path d="M38.0068 32.8745L5.13236 65.749L8.07737 68.694L10.9539 71.639L7.8719 74.6525L4.78992 77.666L7.8719 80.8164C9.58411 82.5286 10.9539 84.2408 10.9539 84.5833C10.9539 84.9257 9.72109 86.501 8.21434 88.0077L5.4748 90.7473L38.3493 123.622L71.2238 156.496L104.235 123.485L137.315 90.4048L134.028 87.1174L130.809 83.8299L133.891 80.8164L136.973 77.8029L133.891 74.6525L130.809 71.502L133.891 68.4885L136.973 65.4065L104.304 32.7375C86.2912 14.725 71.4292 -8.99285e-06 71.2238 -8.99285e-06C71.0183 -8.99285e-06 56.0878 14.7935 38.0068 32.8745ZM103.208 33.6963L134.918 65.4065L132.384 67.9406L129.85 70.5431L100.331 41.0931L70.8813 11.643L41.4313 41.0931L12.0497 70.5431L9.78958 68.3515C8.55678 67.1187 7.52946 65.8174 7.52946 65.475C7.52946 64.5162 69.991 2.05465 70.8813 2.05465C71.2238 2.05465 85.8118 16.3003 103.208 33.6963ZM100.126 42.9423L128.754 71.5705L126.22 74.1045L123.686 76.7071L97.5918 50.6815L71.5662 24.6559L45.1981 51.0239L18.8301 77.392L15.9535 74.5155L13.0085 71.5705L41.5682 43.0108C57.3206 27.2584 70.4704 14.3826 70.8813 14.3826C71.2238 14.3826 84.442 27.2584 100.126 42.9423ZM96.77 103.555L70.8813 129.443L45.4036 103.966L19.8574 78.4193L45.6776 52.5992L71.5662 26.7105L97.0439 52.1882L122.59 77.7344L96.77 103.555ZM15.2687 80.9534L12.7346 83.556L9.78958 80.6794L6.84457 77.8029L9.37865 75.2004L11.9127 72.5978L14.8577 75.4743L17.8027 78.3508L15.2687 80.9534ZM132.316 75.1319C133.343 76.1592 134.233 77.255 134.233 77.666C134.233 78.0084 133.274 79.3782 132.042 80.611L129.85 82.8711L127.247 80.337L124.645 77.8029L126.836 75.5428C128.069 74.31 129.302 73.2827 129.713 73.2827C130.055 73.2827 131.288 74.1045 132.316 75.1319ZM99.852 112.801L70.8813 141.771L42.3216 113.211L13.6934 84.5833L16.2275 82.0492L18.7616 79.4467L44.8557 105.472L70.8813 131.498L97.2494 105.13L123.617 78.7618L126.152 81.2958L128.754 83.8299L99.852 112.801ZM134.918 90.6788C134.918 91.6376 72.4566 154.099 71.5662 154.099C71.2238 154.099 56.6357 139.854 39.2396 122.457L7.52946 90.7473L10.0635 88.2132L12.5976 85.6106L41.7737 114.718L70.8813 143.826L100.331 114.376L129.781 84.9257L132.316 87.4598C133.754 88.8296 134.918 90.3363 134.918 90.6788Z" fill="black"/>
<path d="M62.8682 46.7777C56.5672 49.3802 56.1563 49.6542 56.1563 51.5034C56.1563 53.832 55.9508 53.9005 64.9228 50.0651L71.0183 47.4626L78.1411 50.4076C82.0449 52.0513 85.4694 53.4211 85.8118 53.4211C86.1542 53.4211 86.2912 52.5992 86.1542 51.5719C85.9488 49.9966 85.1269 49.3802 79.1684 46.7777C75.4015 45.1339 71.7032 43.8327 70.9498 43.9011C70.1279 43.9011 66.498 45.2024 62.8682 46.7777Z" fill="black"/>
<path d="M66.0872 50.9554C63.4846 52.1198 60.882 53.3525 60.4711 53.6265C59.7862 54.0374 59.5807 59.1056 59.5807 75.0634V95.9524L63.8955 95.7469L68.1418 95.5415L68.3473 89.5145L68.5527 83.556H71.2238H73.9633V89.7199V95.8839H78.0726H82.182V74.721V53.558L78.6206 52.0513C70.4704 48.5583 71.3608 48.6268 66.0872 50.9554ZM69.0322 60.4069L68.8267 65.4065L66.2926 65.612L63.6901 65.8175V61.4342C63.6901 57.5988 63.8955 56.9824 65.2653 56.2976C68.8267 54.5853 69.2376 55.0648 69.0322 60.4069ZM76.2919 56.1606C77.9357 56.777 78.0726 57.1194 78.0726 61.2972V65.8175L75.881 65.612L73.6209 65.4065L73.4154 60.4069C73.21 55.2702 73.3469 54.9963 76.2919 56.1606ZM69.1691 72.9403V77.392H66.4296H63.6901V72.9403V68.4885H66.4296H69.1691V72.9403ZM78.0726 72.9403V77.392H75.6755H73.2785V74.0361C73.2785 72.1869 73.073 70.2007 72.8675 69.5843C72.5251 68.694 73.0045 68.4885 75.2646 68.4885H78.0726V72.9403Z" fill="black"/>
<path d="M48.965 60.8863C43.4174 62.941 42.0477 63.6943 41.9107 64.9271C41.7737 65.749 42.1162 66.5708 42.5956 66.7763C43.075 66.9133 46.7049 65.9544 50.6772 64.5162C57.2521 62.1876 57.8685 61.8451 58.074 60.0644C58.3479 57.6673 57.5946 57.7358 48.965 60.8863Z" fill="black"/>
<path d="M83.6886 59.996C83.8941 61.6397 84.6475 62.1191 91.0854 64.4477C95.0577 65.886 98.6876 67.0503 99.167 67.0503C99.6465 67.1188 99.9889 66.2969 99.9889 65.2011C99.9889 63.4889 99.578 63.2149 92.5237 60.7493C88.4828 59.3796 84.716 58.2153 84.305 58.2153C83.8256 58.2153 83.5517 58.9686 83.6886 59.996Z" fill="black"/>
<path d="M50.1979 65.9544L44.5133 68.0776V81.9807V95.8839H51.3622H58.211V79.7891C58.211 61.1602 59.0329 62.667 50.1979 65.9544ZM54.7866 76.0907V82.1862H51.7046H48.5541L48.7596 76.5702L48.9651 71.0226L51.3622 70.2007C52.6634 69.7213 53.9647 69.5158 54.3072 69.6528C54.5811 69.7898 54.7866 72.6663 54.7866 76.0907Z" fill="black"/>
<path d="M83.9626 65.2011C83.7572 66.0914 83.5517 73.3512 83.5517 81.2959V95.8839H90.4005H97.2494V81.9123V67.9406L91.3594 65.8175C88.1404 64.6532 85.2639 63.6943 84.99 63.6943C84.6475 63.6943 84.2366 64.3792 83.9626 65.2011ZM92.4552 70.8856C92.7976 71.0911 93.1401 73.7621 93.1401 76.7756V82.1862H90.4005H87.661V75.7483V69.2419L89.7157 69.8583C90.8115 70.2007 92.0443 70.6117 92.4552 70.8856Z" fill="black"/>
<path d="M32.1853 162.934C29.7197 163.277 29.1033 163.619 28.9663 164.715C28.8978 165.468 28.076 168.208 27.1171 170.742C25.268 175.673 24.857 179.029 26.0898 179.782C27.3911 180.604 31.4319 179.44 33.5551 177.659C37.048 174.646 35.9522 170.331 31.4319 169.372C29.1033 168.961 29.1718 169.03 30.4731 166.427C31.3634 164.715 32.0483 164.372 34.9248 163.961C36.774 163.688 38.1438 163.277 37.9383 162.934C37.5959 162.318 37.1165 162.318 32.1853 162.934ZM33.4181 171.427C35.6097 173.207 32.7332 177.796 28.9663 178.481C26.2953 179.029 26.0898 178.07 27.7335 173.139C28.6924 170.331 28.9663 170.057 30.6785 170.399C31.7059 170.536 32.9387 171.016 33.4181 171.427Z" fill="black"/>
<path d="M45.1981 162.934C42.7325 163.277 42.1161 163.619 41.9791 164.715C41.9107 165.468 41.0888 168.208 40.13 170.742C38.2808 175.673 37.8698 179.029 39.1026 179.782C40.4039 180.604 44.4447 179.44 46.5679 177.659C50.0608 174.646 48.965 170.331 44.4447 169.372C42.1161 168.961 42.1846 169.03 43.4859 166.427C44.3762 164.715 45.0611 164.372 47.9376 163.961C49.7868 163.688 51.1566 163.277 50.9511 162.934C50.6087 162.318 50.1293 162.318 45.1981 162.934ZM46.4309 171.427C48.6225 173.207 45.746 177.796 41.9791 178.481C39.3081 179.029 39.1026 178.07 40.7464 173.139C41.7052 170.331 41.9791 170.057 43.6914 170.399C44.7187 170.536 45.9515 171.016 46.4309 171.427Z" fill="black"/>
<path d="M5.20085 165.126C1.297 168.482 -1.44254 177.728 0.817582 179.988C4.24201 183.412 11.6388 175.947 11.6388 168.961C11.6388 166.633 11.2278 165.331 10.269 164.372C8.48829 162.592 8.00887 162.66 5.20085 165.126ZM9.99504 166.701C10.6799 169.646 8.48829 175.673 5.74875 178.002C4.37898 179.234 2.94073 180.056 2.52979 179.919C0.406651 179.234 1.57096 173.344 4.78992 168.276C7.11852 164.646 9.31016 163.961 9.99504 166.701Z" fill="black"/>
<path d="M18.6246 164.715C15.6796 167.18 13.0085 172.865 13.0085 176.7C13.0085 181.631 15.3372 182.796 19.7204 180.125C22.8709 178.207 22.46 177.317 19.1725 178.892C17.6658 179.645 15.9536 180.125 15.4056 179.851C13.214 179.029 14.6523 172.112 17.8712 168.071C21.3641 163.688 23.5558 163.14 21.9121 167.112C21.4326 168.276 21.2957 169.441 21.5011 169.714C22.3915 170.605 24.0352 167.523 23.8297 165.4C23.5558 162.66 21.4326 162.386 18.6246 164.715Z" fill="black"/>
<path d="M60.2656 164.989C60.2656 165.742 59.9917 166.564 59.5808 166.769C59.2383 166.975 58.8959 167.728 58.8959 168.345C58.8959 169.304 59.0329 169.304 59.8547 168.482C61.2245 167.112 62.0463 163.688 61.019 163.688C60.6081 163.688 60.2656 164.304 60.2656 164.989Z" fill="black"/>
<path d="M62.8682 166.153C62.2518 167.386 62.0463 168.482 62.3203 168.482C63.5531 168.482 65.4023 164.646 64.4434 164.098C64.1695 163.893 63.4846 164.852 62.8682 166.153Z" fill="black"/>
<path d="M72.936 164.167C69.1692 164.715 65.7447 165.811 65.7447 166.427C65.7447 166.838 66.0187 167.112 66.3611 167.112C66.7036 167.112 66.0872 169.578 64.9914 172.591C63.8955 175.605 63.0052 178.687 63.0052 179.44C63.0052 182.248 64.101 180.604 65.6762 175.331C68.1418 167.043 69.1007 165.879 73.2785 165.605C75.1277 165.468 76.7029 165.057 76.7714 164.715C76.7714 163.893 75.7441 163.756 72.936 164.167Z" fill="black"/>
<path d="M145.671 164.852C145.534 165.537 145.123 166.633 144.849 167.249C144.095 169.167 145.602 168.687 146.424 166.77C146.904 165.811 147.246 164.715 147.246 164.372C147.246 163.208 146.082 163.619 145.671 164.852Z" fill="black"/>
<path d="M148.41 165.194C148.273 166.085 147.862 167.386 147.588 168.139C147.177 169.304 147.314 169.304 148.547 167.865C149.986 166.29 150.533 163.688 149.369 163.688C149.027 163.688 148.616 164.372 148.41 165.194Z" fill="black"/>
<path d="M131.083 167.386C130.535 168.893 131.288 169.646 132.315 168.619C132.932 168.002 132.932 167.591 132.315 166.975C131.699 166.359 131.425 166.496 131.083 167.386Z" fill="black"/>
<path d="M87.1131 175.468C84.5105 183.549 84.0311 185.604 84.9215 185.604C85.2639 185.604 85.9488 184.234 86.3597 182.59C87.0446 179.919 87.524 179.303 90.332 177.933C93.0031 176.563 93.4825 176.084 93.4825 174.303C93.4825 172.728 93.1401 172.18 91.9758 172.043C91.0854 171.906 90.4005 171.358 90.4005 170.879C90.4005 170.331 90.1266 169.783 89.7841 169.578C89.4417 169.304 88.2089 172.043 87.1131 175.468ZM92.4552 174.235C92.4552 175.194 89.9896 177.385 88.8938 177.385C87.9349 177.385 88.2774 175.468 89.4417 174.372C90.743 173.002 92.4552 172.933 92.4552 174.235Z" fill="black"/>
<path d="M136.151 169.92C133.959 171.153 133.343 173.207 134.507 174.988C135.534 176.495 135.466 176.7 133.891 178.002C132.658 178.96 132.384 179.508 132.932 179.851C133.48 180.125 134.507 179.508 135.603 178.207C137.452 175.947 138.822 175.878 137.658 178.139C137.247 178.892 137.247 179.508 137.589 179.714C137.932 179.988 138.753 179.166 139.301 178.002C140.671 175.331 140.671 175.331 139.301 175.331C138.548 175.331 138.342 174.988 138.685 174.098C139.781 171.427 139.849 170.399 138.959 169.783C137.795 169.03 137.589 169.03 136.151 169.92ZM138.342 171.358C138.274 172.796 136.425 174.851 135.671 174.303C134.644 173.687 134.713 172.865 136.014 171.632C137.315 170.331 138.342 170.194 138.342 171.358Z" fill="black"/>
<path d="M76.7029 173.755C73.4839 178.823 75.1276 181.289 79.3054 177.728C81.3601 175.947 81.4286 175.947 82.182 177.385C82.5929 178.139 83.4148 178.755 84.0312 178.755C84.99 178.755 84.99 178.618 83.9627 177.454C83.2778 176.7 82.8668 175.399 83.0038 174.44C83.0723 173.55 82.7984 172.249 82.2505 171.632C80.6067 169.646 78.826 170.331 76.7029 173.755ZM81.4971 172.523C81.4971 173.481 78.7575 176.632 77.2508 177.454C76.018 178.139 75.9495 178.07 76.7714 176.563C78.4836 173.276 79.6479 171.906 80.5382 171.906C81.0861 171.906 81.4971 172.18 81.4971 172.523Z" fill="black"/>
<path d="M111.358 172.523C108.824 175.125 108.482 178.96 110.81 179.303C114.303 179.851 118.481 172.18 115.33 170.947C113.618 170.331 113.413 170.399 111.358 172.523ZM115.056 173.207C115.056 174.851 112.522 178.07 111.221 178.07C110.057 178.07 110.057 177.728 111.016 175.81C112.865 172.249 115.056 170.81 115.056 173.207Z" fill="black"/>
<path d="M119.645 173.413C117.933 178.207 117.727 179.303 118.481 179.782C118.892 180.056 119.371 179.371 119.577 178.139C119.919 176.358 120.33 176.015 121.905 176.015C123.48 176.015 123.754 176.289 123.48 177.385C122.933 179.44 124.371 179.029 125.193 176.837C126.425 173.755 126.905 171.221 126.22 171.221C125.809 171.221 125.193 171.975 124.782 172.933C124.234 174.098 123.412 174.646 122.248 174.646C120.741 174.646 120.604 174.44 121.22 173.344C122.042 171.701 122.111 170.536 121.289 170.536C121.015 170.536 120.262 171.838 119.645 173.413Z" fill="black"/>
<path d="M97.3864 174.235C96.1536 175.878 95.1948 177.591 95.1948 178.002C95.1948 179.508 96.496 178.686 98.0713 176.152L99.6465 173.618L99.989 175.605C100.468 178.344 101.427 178.413 103.276 175.81L104.783 173.618V176.495C104.783 178.07 105.126 179.577 105.468 179.782C105.879 180.056 106.153 179.371 106.153 178.276C106.153 177.248 106.427 175.331 106.769 174.098C107.66 171.016 105.879 170.194 103.961 172.796C102.249 175.125 101.359 175.125 101.359 172.933C101.359 170.331 99.7835 170.879 97.3864 174.235Z" fill="black"/>
<path d="M128.891 174.851C127.932 177.522 127.795 179.44 128.617 179.44C129.234 179.44 130.809 174.92 130.809 173.344C130.809 171.769 129.713 172.66 128.891 174.851Z" fill="black"/>
</svg>
