<svg width="64" height="64" viewBox="0 0 64 64" fill="none" xmlns="http://www.w3.org/2000/svg">
<path d="M63.0464 0.293281C62.4403 -0.0302381 61.6482 -0.089534 60.8726 0.132489L2.37655 16.8738C1.04401 17.2553 0 18.4101 0 19.5028V63.1723C0 63.5182 0.27993 63.8276 0.701981 63.9482C0.824362 63.9829 0.951049 64 1.0763 64C1.38351 64 1.68354 63.8988 1.89242 63.7126L17.5503 49.7401L62.6621 36.8098C62.7062 36.7974 62.7489 36.7825 62.7906 36.7657C63.5252 36.4659 64 35.8616 64 35.2259V1.80221C64.0007 1.16731 63.6526 0.617075 63.0464 0.293281ZM16.0997 48.4984L2.15368 60.9433V19.5025C2.15368 19.0918 2.62742 18.5678 3.12842 18.4244L61.6245 1.68306C61.7426 1.64914 61.8129 1.65272 61.8093 1.6461C61.819 1.65575 61.8477 1.70513 61.8477 1.80221V35.2253C61.8477 35.2474 61.8273 35.2725 61.8065 35.2887L16.5397 48.2631C16.3692 48.312 16.2178 48.3928 16.0997 48.4984Z" fill="black"/>
<path d="M32.8536 16.9952C25.5905 19.0827 19.6814 25.3225 19.6814 30.9042C19.6814 36.486 25.5905 39.3287 32.8536 37.2411C40.1168 35.1536 46.0259 28.9138 46.0259 23.332C46.0259 17.7503 40.1168 14.9073 32.8536 16.9952ZM42.5468 24.3318C42.5468 28.4394 38.1985 33.031 32.8536 34.5672C27.5087 36.1034 23.1604 34.0117 23.1604 29.9042C23.1604 25.7966 27.5087 21.2053 32.8536 19.6688C38.1985 18.1326 42.5468 20.2243 42.5468 24.3318Z" fill="black"/>
<path d="M32.9032 30.4459C32.451 30.5687 32.0156 30.8235 31.689 31.1559C31.3933 31.4683 31.2236 31.8382 31.2236 32.1705C31.2236 32.4987 31.3865 32.7533 31.6923 32.9058C31.9855 33.0647 32.409 33.0823 32.8536 32.9546C33.2947 32.8278 33.7067 32.5779 34.0136 32.2516C34.3125 31.9386 34.4837 31.5674 34.4837 31.2334C34.4837 30.8933 34.3043 30.6213 33.9956 30.4892C33.7125 30.3488 33.3245 30.3334 32.9032 30.4459Z" fill="black"/>
<path d="M32.8536 21.2814C31.9546 21.5398 31.2236 22.3118 31.2236 23.0027V28.6258C31.2236 29.3167 31.9546 29.6683 32.8536 29.4099C33.7526 29.1515 34.4837 28.3792 34.4837 27.6886V22.0655C34.4837 21.3746 33.7523 21.023 32.8536 21.2814Z" fill="black"/>
</svg>
