<svg width="67" height="65" viewBox="0 0 67 65" fill="none" xmlns="http://www.w3.org/2000/svg">
<g clip-path="url(#clip0_25_290)">
<path d="M63.6958 0.826782H3.41981C1.75532 0.826782 0.405792 2.12626 0.405792 3.72762V61.7622C0.405792 63.3637 1.75532 64.663 3.41981 64.663H63.6958C65.3603 64.663 66.7098 63.3638 66.7098 61.7622V3.72762C66.7098 2.12626 65.3603 0.826782 63.6958 0.826782ZM60.6818 58.8614H6.43383V6.62859H60.6819V58.8614H60.6818Z" fill="#2E14D2"/>
<path d="M8.78737 31.0341H12.4193V50.9478C12.4193 52.1359 13.4191 53.0973 14.6518 53.0973H35.3357V56.5942C35.3357 56.8525 35.4969 57.0855 35.7456 57.1844C35.9941 57.283 36.2786 57.2281 36.4692 57.0455L42.3327 51.3992C42.5922 51.1496 42.5922 50.7465 42.3327 50.4966L36.4692 44.85C36.2786 44.6677 35.9939 44.6131 35.7456 44.7117C35.4969 44.8105 35.3357 45.0433 35.3357 45.3016V48.7986H16.8842V31.0341H20.5162C20.7843 31.0341 21.0263 30.8789 21.1289 30.6397C21.2324 30.4003 21.1757 30.1253 20.9849 29.943L15.1215 24.2962C14.8622 24.0468 14.4413 24.0468 14.1819 24.2962L8.31849 29.943C8.12774 30.1253 8.07106 30.4003 8.17457 30.6397C8.27709 30.8789 8.51909 31.0341 8.78737 31.0341Z" fill="#2E14D2"/>
</g>
<defs>
<clipPath id="clip0_25_290">
<rect width="66.304" height="63.8383" fill="white" transform="translate(0.405792 0.825684)"/>
</clipPath>
</defs>
</svg>
