<svg width="40" height="40" viewBox="0 0 40 40" fill="none" xmlns="http://www.w3.org/2000/svg">
<g clip-path="url(#clip0_57_298)">
<path d="M20 0C14.6957 0 9.60859 2.10714 5.85786 5.85786C2.10714 9.60859 0 14.6957 0 20C0 25.3043 2.10714 30.3914 5.85786 34.1421C9.60859 37.8929 14.6957 40 20 40C20.663 40 21.2989 39.7366 21.7678 39.2678C22.2366 38.7989 22.5 38.163 22.5 37.5C22.5 36.837 22.2366 36.2011 21.7678 35.7322C21.2989 35.2634 20.663 35 20 35C17.0333 35 14.1332 34.1203 11.6664 32.472C9.19971 30.8238 7.27712 28.4811 6.14181 25.7403C5.00649 22.9994 4.70944 19.9834 5.28822 17.0736C5.867 14.1639 7.29561 11.4912 9.3934 9.3934C11.4912 7.29561 14.1639 5.867 17.0736 5.28822C19.9834 4.70944 22.9994 5.00649 25.7403 6.14181C28.4811 7.27712 30.8238 9.19971 32.472 11.6664C34.1203 14.1332 35 17.0333 35 20V27.5C35 28.163 34.7366 28.7989 34.2678 29.2678C33.7989 29.7366 33.163 30 32.5 30C31.837 30 31.2011 29.7366 30.7322 29.2678C30.2634 28.7989 30 28.163 30 27.5V20C30 18.0222 29.4135 16.0888 28.3147 14.4443C27.2159 12.7998 25.6541 11.5181 23.8268 10.7612C21.9996 10.0043 19.9889 9.8063 18.0491 10.1921C16.1093 10.578 14.3275 11.5304 12.9289 12.9289C11.5304 14.3275 10.578 16.1093 10.1921 18.0491C9.8063 19.9889 10.0043 21.9996 10.7612 23.8268C11.5181 25.6541 12.7998 27.2159 14.4443 28.3147C16.0888 29.4135 18.0222 30 20 30C21.8023 29.9912 23.568 29.49 25.1062 28.5507C25.3681 30.4289 26.3333 32.1377 27.8068 33.3315C29.2803 34.5253 31.1521 35.1151 33.0438 34.9816C34.9355 34.8482 36.706 34.0014 37.9973 32.6126C39.2886 31.2237 40.0044 29.3964 40 27.5V20C39.9948 14.6973 37.886 9.61323 34.1364 5.86364C30.3868 2.11404 25.3027 0.0052287 20 0V0ZM20 25C19.0111 25 18.0444 24.7068 17.2221 24.1573C16.3999 23.6079 15.759 22.827 15.3806 21.9134C15.0022 20.9998 14.9031 19.9945 15.0961 19.0245C15.289 18.0546 15.7652 17.1637 16.4645 16.4645C17.1637 15.7652 18.0546 15.289 19.0245 15.0961C19.9945 14.9031 20.9998 15.0022 21.9134 15.3806C22.827 15.759 23.6079 16.3999 24.1573 17.2221C24.7068 18.0444 25 19.0111 25 20C24.9991 21.3258 24.472 22.5971 23.5345 23.5345C22.5971 24.472 21.3258 24.9991 20 25Z" fill="black"/>
</g>
<defs>
<clipPath id="clip0_57_298">
<rect width="40" height="40" fill="white"/>
</clipPath>
</defs>
</svg>
