<svg width="70" height="65" viewBox="0 0 70 65" fill="none" xmlns="http://www.w3.org/2000/svg">
<g clip-path="url(#clip0_25_300)">
<path d="M64.0451 51.4221V23.0333C64.0451 21.3482 62.5607 19.9772 60.7361 19.9772C58.9116 19.9772 57.4272 21.3482 57.4272 23.0333V51.9656C56.242 52.6393 55.2932 53.6002 54.6756 54.7487H38.1618V44.7655C38.1618 43.0804 36.6774 41.7094 34.8529 41.7094C33.0283 41.7094 31.5439 43.0804 31.5439 44.7655V54.7487H15.1775C14.4322 53.3622 13.2079 52.2559 11.6904 51.5984V36.4122H20.1465C21.971 36.4122 23.4555 35.0411 23.4555 33.356C23.4555 31.6709 21.971 30.2999 20.1465 30.2999H11.6904V16.0647C13.1519 15.4298 14.3485 14.3716 15.1007 13.0501H43.6767C45.5013 13.0501 46.9857 11.679 46.9857 9.99393C46.9857 8.30883 45.5013 6.9378 43.6767 6.9378H15.2473C14.034 4.55471 11.4266 2.9989 8.52839 2.9989C4.4333 2.9989 1.10164 6.07586 1.10164 9.85815C1.10164 12.4389 2.63767 14.7513 5.07239 15.9288V51.7341C2.6378 52.9116 1.10164 55.2241 1.10164 57.8047C1.10177 61.587 4.4333 64.664 8.52853 64.664C11.3522 64.664 13.9327 63.1617 15.1766 60.8609H54.6765C55.9203 63.1617 58.5008 64.664 61.3243 64.664C65.4194 64.664 68.7511 61.587 68.7511 57.8047C68.7511 54.9624 66.8539 52.4419 64.0451 51.4221ZM15.893 8.97527H43.6767C44.285 8.97527 44.7797 9.43223 44.7797 9.99393C44.7797 10.5556 44.2849 11.0126 43.6767 11.0126H15.8477C15.9179 10.6329 15.9551 10.2477 15.9551 9.85803C15.9551 9.5619 15.9341 9.26728 15.893 8.97527ZM20.1465 32.3373C20.7548 32.3373 21.2494 32.7943 21.2494 33.356C21.2494 33.9178 20.7547 34.3747 20.1465 34.3747H10.5874C9.97816 34.3747 9.48446 34.8307 9.48446 35.3934V51.0029C9.16829 50.965 8.84929 50.9455 8.52853 50.9455C8.10679 50.9455 7.6895 50.98 7.27843 51.0447V16.618C7.6895 16.6829 8.10665 16.7173 8.52853 16.7173C8.84929 16.7173 9.16829 16.6977 9.48446 16.6598V31.3186C9.48446 31.8813 9.97816 32.3372 10.5874 32.3372H20.1465V32.3373ZM3.30767 9.85815C3.30767 7.19939 5.64965 5.03637 8.52839 5.03637C10.7558 5.03637 12.7394 6.34318 13.4645 8.28813C13.6534 8.79472 13.7491 9.32301 13.7491 9.85815C13.7491 10.4758 13.623 11.0793 13.3742 11.6521V11.6524C12.8086 12.9534 11.662 13.9613 10.2282 14.4171C9.67967 14.5915 9.10768 14.6799 8.52826 14.6799C7.85947 14.6799 7.20607 14.5635 6.58588 14.3337C6.58561 14.3336 6.58547 14.3336 6.5852 14.3334C4.59422 13.5949 3.30767 11.8386 3.30767 9.85815ZM13.4224 59.4867C13.4224 59.4868 13.4223 59.4871 13.4223 59.4872C12.6651 61.3648 10.6985 62.6265 8.52839 62.6265C5.64965 62.6265 3.30767 60.4635 3.30767 57.8047C3.30767 55.8242 4.59422 54.0678 6.58534 53.3294C6.58561 53.3293 6.58588 53.3293 6.58601 53.3292C7.2062 53.0994 7.8596 52.9829 8.52839 52.9829C9.10781 52.9829 9.67981 53.0713 10.2283 53.2458C11.7112 53.7173 12.8753 54.7659 13.4224 56.1229C13.6394 56.6609 13.7494 57.2267 13.7494 57.8048C13.7494 58.383 13.6394 58.9487 13.4224 59.4867ZM53.9809 58.8234H15.872C15.9263 58.4877 15.9553 58.1477 15.9553 57.8047C15.9553 57.4617 15.9263 57.1217 15.872 56.786H32.647C33.2562 56.786 33.7499 56.3301 33.7499 55.7674V44.7655C33.7499 44.2037 34.2447 43.7468 34.8529 43.7468C35.4612 43.7468 35.9558 44.2038 35.9558 44.7655V55.7674C35.9558 56.3301 36.4495 56.786 37.0588 56.786H53.9807C53.9265 57.1217 53.8974 57.4617 53.8974 57.8047C53.8974 58.1477 53.9266 58.4879 53.9809 58.8234ZM59.6332 23.0333C59.6332 22.4715 60.128 22.0146 60.7361 22.0146C61.3444 22.0146 61.8391 22.4716 61.8391 23.0333V50.9629C61.6679 50.952 61.4963 50.9456 61.3243 50.9456C60.7479 50.9456 60.1828 51.0053 59.6331 51.1239V23.0333H59.6332ZM61.3243 62.6266C59.1542 62.6266 57.1877 61.365 56.4306 59.4873C56.4306 59.4872 56.4304 59.487 56.4304 59.4868C56.2135 58.9488 56.1035 58.383 56.1035 57.8048C56.1035 57.2267 56.2135 56.6609 56.4304 56.1229C56.8969 54.9657 57.8159 54.0265 59.0183 53.4786C59.7397 53.1498 60.5157 52.9829 61.3242 52.9829C61.7754 52.9829 62.2251 53.0368 62.6604 53.1429C64.9477 53.7004 66.5449 55.6174 66.5449 57.8047C66.5452 60.4636 64.2032 62.6266 61.3243 62.6266Z" fill="#2E14D2"/>
<path d="M68.5752 6.50243L62.7518 1.12393C62.5449 0.933037 62.2643 0.825684 61.9717 0.825684C61.6791 0.825684 61.3986 0.933161 61.1916 1.12418L34.6846 25.6179L28.854 31.003C28.8485 31.0081 28.8436 31.014 28.8381 31.0193C28.8212 31.0357 28.8047 31.0523 28.7889 31.0696C28.7835 31.0756 28.7779 31.0816 28.7726 31.0875C28.7681 31.0925 28.7644 31.0979 28.76 31.103C28.7479 31.1177 28.7359 31.1324 28.7245 31.1478C28.7167 31.1582 28.7091 31.1688 28.7019 31.1796C28.6981 31.1853 28.6942 31.1908 28.6905 31.1965C28.6834 31.2076 28.6762 31.219 28.6693 31.2304C28.6599 31.246 28.6512 31.2621 28.6427 31.2781C28.6395 31.2842 28.6358 31.2901 28.6327 31.2963C28.6291 31.3036 28.6257 31.3111 28.6223 31.3186C28.613 31.3384 28.6047 31.3585 28.597 31.3789C28.594 31.3865 28.5903 31.3936 28.5875 31.4012L27.1317 35.4352L25.7648 39.2223L24.1317 40.7306C23.7009 41.1286 23.7009 41.7735 24.1317 42.1713C24.3472 42.3702 24.6294 42.4696 24.9117 42.4696C25.1939 42.4696 25.4763 42.3702 25.6918 42.1713L27.2983 40.6876L35.8062 38.0684C35.815 38.0656 35.8231 38.0621 35.8316 38.0591C35.8528 38.052 35.874 38.0448 35.8947 38.0363C35.903 38.0331 35.9114 38.03 35.9195 38.0263C35.9264 38.0233 35.933 38.0199 35.9399 38.0169C35.9569 38.0093 35.9738 38.0014 35.9905 37.9928C36.0028 37.9864 36.0152 37.9801 36.0272 37.9732C36.0337 37.9697 36.04 37.966 36.0464 37.9622C36.0579 37.9555 36.0693 37.9485 36.0807 37.9413C36.0969 37.931 36.1125 37.9204 36.1281 37.9094C36.134 37.9051 36.1401 37.9014 36.1459 37.897C36.1526 37.8921 36.1593 37.8867 36.1659 37.8815C36.1837 37.8677 36.2006 37.8534 36.2172 37.8387C36.2236 37.833 36.2305 37.828 36.237 37.8221L50.7955 24.376C50.8153 24.3578 50.8339 24.3393 50.8517 24.3201L68.5753 7.94278C69.006 7.54504 69.0058 6.90005 68.5752 6.50243ZM28.4664 38.1803L29.2247 36.0795L30.1162 33.6094L33.4156 36.6567L28.4664 38.1803ZM49.2337 22.9337C49.2142 22.9518 49.1957 22.9702 49.1778 22.9893L35.4574 35.6612L31.194 31.7234L36.2447 27.0585L61.9719 3.2852L66.2355 7.22286L49.2337 22.9337Z" fill="#2E14D2"/>
</g>
<defs>
<clipPath id="clip0_25_300">
<rect width="69.12" height="63.8383" fill="white" transform="translate(0.440002 0.825684)"/>
</clipPath>
</defs>
</svg>
