<svg width="65" height="80" viewBox="0 0 65 80" fill="none" xmlns="http://www.w3.org/2000/svg">
<path d="M16.3819 14.1697L2.21218 28.3395L3.48155 29.6088L4.7214 30.8782L3.39299 32.1771L2.06458 33.476L3.39299 34.8339C4.131 35.5719 4.7214 36.3099 4.7214 36.4575C4.7214 36.6052 4.19004 37.2841 3.54059 37.9336L2.35978 39.1144L16.5295 53.2841L30.6993 67.4539L44.928 53.2251L59.1863 38.9668L57.7694 37.5498L56.3819 36.1328L57.7103 34.8339L59.0387 33.535L57.7103 32.1771L56.3819 30.8192L57.7103 29.5203L59.0387 28.1919L44.9576 14.1107C37.1937 6.34685 30.7878 -1.52588e-05 30.6993 -1.52588e-05C30.6107 -1.52588e-05 24.1753 6.37637 16.3819 14.1697ZM44.4852 14.524L58.1531 28.1919L57.0609 29.2841L55.9686 30.4059L43.2454 17.7122L30.5517 5.01844L17.8579 17.7122L5.19373 30.4059L4.21956 29.4612C3.68819 28.9299 3.24539 28.369 3.24539 28.2214C3.24539 27.8081 30.1679 0.885597 30.5517 0.885597C30.6993 0.885597 36.9871 7.02582 44.4852 14.524ZM43.1568 18.5092L55.4963 30.8487L54.4041 31.9409L53.3118 33.0627L42.0646 21.845L30.8469 10.6273L19.4816 21.9926L8.11624 33.3579L6.87638 32.1181L5.60701 30.8487L17.917 18.5387C24.7066 11.7491 30.3745 6.19925 30.5517 6.19925C30.6993 6.19925 36.3967 11.7491 43.1568 18.5092ZM41.7103 44.6347L30.5517 55.7933L19.5701 44.8118L8.55904 33.8007L19.6882 22.6716L30.8469 11.5129L41.8284 22.4944L52.8395 33.5055L41.7103 44.6347ZM6.58118 34.893L5.48893 36.0147L4.21956 34.7749L2.95018 33.535L4.04244 32.4133L5.13469 31.2915L6.40406 32.5313L7.67343 33.7712L6.58118 34.893ZM57.0314 32.3837C57.4742 32.8266 57.8579 33.2989 57.8579 33.476C57.8579 33.6236 57.4446 34.214 56.9133 34.7454L55.9686 35.7195L54.8469 34.6273L53.7251 33.535L54.6697 32.5609C55.2011 32.0295 55.7325 31.5867 55.9096 31.5867C56.0572 31.5867 56.5886 31.9409 57.0314 32.3837ZM43.0387 48.6199L30.5517 61.107L18.2417 48.797L5.90221 36.4575L6.99446 35.3653L8.08672 34.2435L19.3339 45.4612L30.5517 56.679L41.917 45.3136L53.2823 33.9483L54.3745 35.0406L55.4963 36.1328L43.0387 48.6199ZM58.1531 39.0849C58.1531 39.4981 31.2306 66.4206 30.8469 66.4206C30.6993 66.4206 24.4114 60.2804 16.9133 52.7823L3.24539 39.1144L4.33764 38.0221L5.42989 36.9004L18.0055 49.4465L30.5517 61.9926L43.2454 49.2989L55.9391 36.6052L57.0314 37.6974C57.6513 38.2878 58.1531 38.9373 58.1531 39.0849Z" fill="black"/>
<path d="M27.0977 20.1623C24.3819 21.2841 24.2048 21.4022 24.2048 22.1992C24.2048 23.2029 24.1162 23.2325 27.9834 21.5793L30.6107 20.4576L33.6808 21.7269C35.3634 22.4354 36.8394 23.0258 36.987 23.0258C37.1346 23.0258 37.1937 22.6716 37.1346 22.2288C37.0461 21.5498 36.6918 21.2841 34.1236 20.1623C32.5 19.4539 30.9059 18.893 30.5811 18.9225C30.2269 18.9225 28.6623 19.4834 27.0977 20.1623Z" fill="black"/>
<path d="M28.4853 21.9631C27.3636 22.465 26.2418 22.9963 26.0647 23.1144C25.7695 23.2915 25.6809 25.476 25.6809 32.3543V41.3579L27.5407 41.2694L29.3709 41.1808L29.4595 38.583L29.5481 36.0148H30.6994H31.8802V38.6716V41.3284H33.6514H35.4226V32.2066V23.0849L33.8876 22.4354C30.3746 20.9299 30.7584 20.9594 28.4853 21.9631ZM29.7547 26.0369L29.6661 28.1919L28.5739 28.2805L27.4521 28.369V26.4797C27.4521 24.8266 27.5407 24.5609 28.1311 24.2657C29.6661 23.5277 29.8433 23.7343 29.7547 26.0369ZM32.8839 24.2066C33.5923 24.4723 33.6514 24.6199 33.6514 26.4207V28.369L32.7067 28.2805L31.7326 28.1919L31.644 26.0369C31.5554 23.8229 31.6145 23.7048 32.8839 24.2066ZM29.8137 31.4391V33.3579H28.6329H27.4521V31.4391V29.5203H28.6329H29.8137V31.4391ZM33.6514 31.4391V33.3579H32.6182H31.585V31.9114C31.585 31.1144 31.4964 30.2583 31.4078 29.9926C31.2602 29.6089 31.4669 29.5203 32.4411 29.5203H33.6514V31.4391Z" fill="black"/>
<path d="M21.1052 26.2436C18.7141 27.1292 18.1237 27.4539 18.0646 27.9853C18.0056 28.3395 18.1532 28.6937 18.3598 28.7823C18.5665 28.8413 20.1311 28.4281 21.8432 27.8081C24.6772 26.8044 24.9429 26.6568 25.0314 25.8893C25.1495 24.8561 24.8248 24.8856 21.1052 26.2436Z" fill="black"/>
<path d="M36.072 25.8598C36.1605 26.5683 36.4852 26.7749 39.2602 27.7786C40.9723 28.3985 42.5369 28.9004 42.7435 28.9004C42.9502 28.9299 43.0978 28.5757 43.0978 28.1033C43.0978 27.3653 42.9207 27.2472 39.8801 26.1845C38.1384 25.5941 36.5148 25.0923 36.3376 25.0923C36.131 25.0923 36.0129 25.417 36.072 25.8598Z" fill="black"/>
<path d="M21.6365 28.4281L19.1863 29.3432V35.3358V41.3284H22.1383H25.0903V34.3912C25.0903 26.3616 25.4446 27.0111 21.6365 28.4281ZM23.6143 32.7971V35.4244H22.2859H20.928L21.0165 33.0037L21.1051 30.6126L22.1383 30.2583C22.6992 30.0517 23.2601 29.9631 23.4077 30.0222C23.5258 30.0812 23.6143 31.321 23.6143 32.7971Z" fill="black"/>
<path d="M36.1901 28.1033C36.1015 28.4871 36.0129 31.6163 36.0129 35.0406V41.3284H38.965H41.917V35.3063V29.2841L39.3783 28.369C37.9908 27.8672 36.7509 27.4539 36.6329 27.4539C36.4853 27.4539 36.3081 27.7491 36.1901 28.1033ZM39.8506 30.5535C39.9982 30.6421 40.1458 31.7934 40.1458 33.0923V35.4244H38.965H37.7842V32.6495V29.845L38.6698 30.1107C39.1421 30.2583 39.6735 30.4354 39.8506 30.5535Z" fill="black"/>
<path d="M13.8727 70.2288C12.81 70.3764 12.5443 70.524 12.4852 70.9963C12.4557 71.321 12.1015 72.5018 11.6882 73.5941C10.8911 75.7196 10.714 77.1661 11.2454 77.4908C11.8063 77.845 13.548 77.3432 14.4631 76.5756C15.9686 75.2768 15.4963 73.417 13.548 73.0037C12.5443 72.8266 12.5738 72.8561 13.1347 71.7343C13.5184 70.9963 13.8137 70.8487 15.0535 70.6716C15.8506 70.5535 16.441 70.3764 16.3524 70.2288C16.2048 69.9631 15.9982 69.9631 13.8727 70.2288ZM14.4041 73.8893C15.3487 74.6568 14.1089 76.6347 12.4852 76.9299C11.3339 77.1661 11.2454 76.7528 11.9539 74.6273C12.3672 73.417 12.4852 73.2989 13.2232 73.4465C13.666 73.5055 14.1974 73.7122 14.4041 73.8893Z" fill="black"/>
<path d="M19.4816 70.2288C18.4188 70.3764 18.1532 70.524 18.0941 70.9963C18.0646 71.321 17.7104 72.5018 17.2971 73.5941C16.5 75.7196 16.3229 77.1661 16.8543 77.4908C17.4152 77.845 19.1569 77.3432 20.072 76.5756C21.5775 75.2768 21.1052 73.417 19.1569 73.0037C18.1532 72.8266 18.1827 72.8561 18.7436 71.7343C19.1273 70.9963 19.4225 70.8487 20.6624 70.6716C21.4594 70.5535 22.0498 70.3764 21.9613 70.2288C21.8137 69.9631 21.607 69.9631 19.4816 70.2288ZM20.0129 73.8893C20.9576 74.6568 19.7177 76.6347 18.0941 76.9299C16.9428 77.1661 16.8543 76.7528 17.5628 74.6273C17.976 73.417 18.0941 73.2989 18.8321 73.4465C19.2749 73.5055 19.8063 73.7122 20.0129 73.8893Z" fill="black"/>
<path d="M2.2417 71.1734C0.559041 72.6199 -0.621771 76.6052 0.352399 77.5793C1.82841 79.0553 5.0166 75.8376 5.0166 72.8266C5.0166 71.8229 4.83948 71.262 4.4262 70.8487C3.65867 70.0812 3.45203 70.1107 2.2417 71.1734ZM4.30812 71.8524C4.60332 73.1218 3.65867 75.7195 2.47786 76.7232C1.88745 77.2546 1.26753 77.6088 1.09041 77.5498C0.175277 77.2546 0.677122 74.7159 2.06458 72.5314C3.06827 70.9668 4.01292 70.6716 4.30812 71.8524Z" fill="black"/>
<path d="M8.02772 70.9963C6.75835 72.059 5.60706 74.5092 5.60706 76.1624C5.60706 78.2878 6.61075 78.7897 8.50004 77.6384C9.85798 76.8118 9.68086 76.428 8.26388 77.107C7.61444 77.4317 6.87643 77.6384 6.64027 77.5203C5.69562 77.166 6.31554 74.1845 7.703 72.4428C9.20853 70.5535 10.1532 70.3173 9.44469 72.0295C9.23805 72.5314 9.17901 73.0332 9.26757 73.1513C9.65134 73.535 10.3598 72.2066 10.2713 71.2915C10.1532 70.1107 9.23805 69.9926 8.02772 70.9963Z" fill="black"/>
<path d="M25.976 71.1144C25.976 71.4391 25.8579 71.7934 25.6808 71.8819C25.5332 71.9705 25.3856 72.2952 25.3856 72.5609C25.3856 72.9742 25.4447 72.9742 25.7989 72.6199C26.3893 72.0295 26.7436 70.5535 26.3007 70.5535C26.1236 70.5535 25.976 70.8192 25.976 71.1144Z" fill="black"/>
<path d="M27.0978 71.6162C26.8321 72.1476 26.7435 72.6199 26.8616 72.6199C27.393 72.6199 28.19 70.9668 27.7767 70.7306C27.6587 70.6421 27.3635 71.0554 27.0978 71.6162Z" fill="black"/>
<path d="M31.4373 70.7602C29.8137 70.9963 28.3377 71.4687 28.3377 71.7343C28.3377 71.9115 28.4558 72.0295 28.6034 72.0295C28.751 72.0295 28.4853 73.0923 28.0129 74.3912C27.5406 75.6901 27.1569 77.0185 27.1569 77.3432C27.1569 78.5535 27.6292 77.845 28.3082 75.572C29.3709 72 29.7842 71.4982 31.5849 71.3801C32.382 71.3211 33.0609 71.1439 33.0904 70.9963C33.0904 70.6421 32.6476 70.583 31.4373 70.7602Z" fill="black"/>
<path d="M62.7879 71.0553C62.7288 71.3505 62.5517 71.8229 62.4336 72.0886C62.1089 72.9151 62.7584 72.7085 63.1126 71.8819C63.3192 71.4686 63.4668 70.9963 63.4668 70.8487C63.4668 70.3469 62.965 70.524 62.7879 71.0553Z" fill="black"/>
<path d="M63.9687 71.2029C63.9096 71.5867 63.7325 72.1476 63.6144 72.4723C63.4373 72.9742 63.4963 72.9742 64.0277 72.3542C64.6476 71.6753 64.8838 70.5535 64.3819 70.5535C64.2343 70.5535 64.0572 70.8487 63.9687 71.2029Z" fill="black"/>
<path d="M56.5 72.1476C56.2638 72.797 56.5885 73.1218 57.0314 72.679C57.297 72.4133 57.297 72.2361 57.0314 71.9705C56.7657 71.7048 56.6476 71.7638 56.5 72.1476Z" fill="black"/>
<path d="M37.5479 75.631C36.4261 79.1144 36.2195 80 36.6032 80C36.7508 80 37.046 79.4096 37.2232 78.7011C37.5184 77.5498 37.725 77.2841 38.9353 76.6937C40.0866 76.1033 40.2933 75.8967 40.2933 75.1292C40.2933 74.4502 40.1457 74.214 39.6438 74.155C39.2601 74.0959 38.9649 73.8598 38.9649 73.6531C38.9649 73.417 38.8468 73.1808 38.6992 73.0923C38.5516 72.9742 38.0202 74.155 37.5479 75.631ZM39.8505 75.0996C39.8505 75.5129 38.7877 76.4576 38.3154 76.4576C37.9021 76.4576 38.0497 75.631 38.5516 75.1587C39.1125 74.5683 39.8505 74.5387 39.8505 75.0996Z" fill="black"/>
<path d="M58.6845 73.2398C57.7398 73.7712 57.4741 74.6568 57.976 75.4243C58.4188 76.0738 58.3893 76.1623 57.7103 76.7232C57.1789 77.1365 57.0608 77.3727 57.297 77.5203C57.5332 77.6384 57.976 77.3727 58.4483 76.8118C59.2454 75.8376 59.8358 75.8081 59.3339 76.7823C59.1568 77.107 59.1568 77.3727 59.3044 77.4612C59.452 77.5793 59.8062 77.2251 60.0424 76.7232C60.6328 75.5719 60.6328 75.5719 60.0424 75.5719C59.7177 75.5719 59.6291 75.4243 59.7767 75.0406C60.249 73.8893 60.2786 73.4465 59.8948 73.1808C59.393 72.8561 59.3044 72.8561 58.6845 73.2398ZM59.6291 73.8598C59.5996 74.4797 58.8025 75.3653 58.4778 75.1291C58.035 74.8634 58.0645 74.5092 58.6254 73.9778C59.1863 73.4169 59.6291 73.3579 59.6291 73.8598Z" fill="black"/>
<path d="M33.0609 74.893C31.6734 77.0775 32.3819 78.1402 34.1826 76.6051C35.0682 75.8376 35.0978 75.8376 35.4225 76.4575C35.5996 76.7823 35.9538 77.0479 36.2195 77.0479C36.6328 77.0479 36.6328 76.9889 36.19 76.4871C35.8948 76.1623 35.7177 75.6014 35.7767 75.1882C35.8062 74.8044 35.6882 74.2435 35.452 73.9778C34.7435 73.1217 33.976 73.4169 33.0609 74.893ZM35.1273 74.3616C35.1273 74.7749 33.9465 76.1328 33.297 76.4871C32.7656 76.7823 32.7361 76.7527 33.0904 76.1033C33.8284 74.6863 34.3302 74.0959 34.714 74.0959C34.9502 74.0959 35.1273 74.214 35.1273 74.3616Z" fill="black"/>
<path d="M47.9982 74.3616C46.9059 75.4834 46.7583 77.1365 47.762 77.2842C49.2675 77.5203 51.0683 74.214 49.7103 73.6827C48.9723 73.417 48.8838 73.4465 47.9982 74.3616ZM49.5922 74.6568C49.5922 75.3653 48.5 76.7528 47.9391 76.7528C47.4373 76.7528 47.4373 76.6052 47.8505 75.7786C48.6476 74.2436 49.5922 73.6236 49.5922 74.6568Z" fill="black"/>
<path d="M51.5701 74.7454C50.8321 76.8118 50.7436 77.2841 51.0683 77.4908C51.2454 77.6088 51.4521 77.3136 51.5406 76.7823C51.6882 76.0147 51.8653 75.8671 52.5443 75.8671C53.2233 75.8671 53.3414 75.9852 53.2233 76.4575C52.9871 77.3432 53.607 77.166 53.9613 76.2214C54.4927 74.893 54.6993 73.8007 54.4041 73.8007C54.227 73.8007 53.9613 74.1254 53.7842 74.5387C53.548 75.0406 53.1938 75.2767 52.6919 75.2767C52.0425 75.2767 51.9834 75.1882 52.2491 74.7158C52.6034 74.0074 52.6329 73.5055 52.2786 73.5055C52.1605 73.5055 51.8358 74.0664 51.5701 74.7454Z" fill="black"/>
<path d="M41.976 75.0996C41.4447 75.8081 41.0314 76.5461 41.0314 76.7232C41.0314 77.3727 41.5923 77.0184 42.2712 75.9262L42.9502 74.8339L43.0978 75.69C43.3044 76.8708 43.7177 76.9003 44.5148 75.7786L45.1642 74.8339V76.0738C45.1642 76.7527 45.3118 77.4022 45.4594 77.4907C45.6365 77.6088 45.7546 77.3136 45.7546 76.8413C45.7546 76.3985 45.8727 75.5719 46.0203 75.0406C46.4041 73.7121 45.6365 73.3579 44.81 74.4797C44.072 75.4834 43.6882 75.4834 43.6882 74.5387C43.6882 73.4169 43.0092 73.6531 41.976 75.0996Z" fill="black"/>
<path d="M55.5554 75.3653C55.1421 76.5166 55.0831 77.3432 55.4373 77.3432C55.703 77.3432 56.382 75.3948 56.382 74.7159C56.382 74.0369 55.9096 74.4207 55.5554 75.3653Z" fill="black"/>
</svg>
