<svg width="64" height="67" viewBox="0 0 64 67" fill="none" xmlns="http://www.w3.org/2000/svg">
<path d="M63.0464 0.937479C62.4403 0.60369 61.6482 0.542511 60.8726 0.771582L2.37655 18.0444C1.04401 18.4379 0 19.6294 0 20.7568V65.8127C0 66.1695 0.27993 66.4888 0.701981 66.6131C0.824362 66.649 0.951049 66.6666 1.0763 66.6666C1.38351 66.6666 1.68354 66.5622 1.89242 66.3701L17.5503 51.954L62.6621 38.6133C62.7062 38.6005 62.7489 38.5851 62.7906 38.5677C63.5252 38.2584 64 37.6349 64 36.979V2.49431C64.0007 1.83925 63.6526 1.27155 63.0464 0.937479ZM16.0997 50.6729L2.15368 63.5128V20.7565C2.15368 20.3328 2.62742 19.7922 3.12842 19.6442L61.6245 2.37138C61.7426 2.33638 61.8129 2.34008 61.8093 2.33325C61.819 2.34321 61.8477 2.39415 61.8477 2.49431V36.9785C61.8477 37.0012 61.8273 37.0271 61.8065 37.0439L16.5397 50.4302C16.3692 50.4806 16.2178 50.5639 16.0997 50.6729Z" fill="#FF0303"/>
<path d="M32.8536 18.1696C25.5905 20.3235 19.6814 26.7613 19.6814 32.5203C19.6814 38.2792 25.5905 41.2122 32.8536 39.0583C40.1168 36.9045 46.0259 30.4666 46.0259 24.7077C46.0259 18.9487 40.1168 16.0155 32.8536 18.1696ZM42.5468 25.7392C42.5468 29.9772 38.1985 34.7145 32.8536 36.2995C27.5087 37.8845 23.1604 35.7264 23.1604 31.4885C23.1604 27.2505 27.5087 22.5134 32.8536 20.9281C38.1985 19.3431 42.5468 21.5013 42.5468 25.7392Z" fill="#E5664A"/>
<path d="M32.9032 32.0474C32.451 32.174 32.0156 32.437 31.689 32.7799C31.3933 33.1023 31.2236 33.4839 31.2236 33.8268C31.2236 34.1654 31.3865 34.428 31.6923 34.5854C31.9855 34.7493 32.409 34.7675 32.8536 34.6358C33.2947 34.5049 33.7067 34.2471 34.0136 33.9104C34.3125 33.5875 34.4837 33.2044 34.4837 32.8598C34.4837 32.509 34.3043 32.2284 33.9956 32.0921C33.7125 31.9473 33.3245 31.9313 32.9032 32.0474Z" fill="#FF0303"/>
<path d="M32.8536 22.592C31.9546 22.8586 31.2236 23.6551 31.2236 24.3679V30.1695C31.2236 30.8823 31.9546 31.2452 32.8536 30.9785C33.7526 30.7119 34.4837 29.9151 34.4837 29.2026V23.401C34.4837 22.6881 33.7523 22.3253 32.8536 22.592Z" fill="#FF0303"/>
</svg>
