<svg width="64" height="60" viewBox="0 0 64 60" fill="none" xmlns="http://www.w3.org/2000/svg">
<path d="M16.5 16.7171C18.0306 16.7171 19.5269 16.2979 20.7995 15.5125C22.0722 14.7271 23.0641 13.6108 23.6499 12.3047C24.2356 10.9987 24.3889 9.56153 24.0903 8.17502C23.7917 6.78851 23.0546 5.51493 21.9723 4.51531C20.89 3.5157 19.511 2.83495 18.0098 2.55916C16.5086 2.28336 14.9525 2.42491 13.5384 2.9659C12.1243 3.50689 10.9156 4.42302 10.0652 5.59844C9.21487 6.77386 8.76099 8.15579 8.76099 9.56946C8.76327 11.4645 9.57936 13.2813 11.0302 14.6213C12.4811 15.9613 14.4482 16.715 16.5 16.7171ZM16.5 6.11616C17.2395 6.11616 17.9624 6.3187 18.5773 6.69815C19.1921 7.0776 19.6714 7.61693 19.9544 8.24794C20.2374 8.87894 20.3114 9.57329 20.1671 10.2432C20.0229 10.913 19.6668 11.5283 19.1439 12.0113C18.6209 12.4943 17.9547 12.8231 17.2294 12.9564C16.5041 13.0896 15.7523 13.0213 15.0691 12.7599C14.3859 12.4985 13.802 12.0559 13.3911 11.488C12.9803 10.9201 12.761 10.2525 12.761 9.56946C12.7621 8.65391 13.1564 7.77618 13.8574 7.12879C14.5583 6.4814 15.5087 6.11723 16.5 6.11616Z" fill="#2E14D2"/>
<path d="M22 18.1228H11C9.40924 18.1244 7.88413 18.7088 6.7593 19.7477C5.63446 20.7866 5.00175 22.1951 5 23.6643V41.2125H9V57.837H24V41.2125H28V23.6643C27.9982 22.1951 27.3655 20.7866 26.2407 19.7477C25.1159 18.7088 23.5908 18.1244 22 18.1228ZM24 37.5181H20V54.1427H13V37.5181H9V23.6643C9.00063 23.1746 9.21154 22.7051 9.58648 22.3588C9.96142 22.0125 10.4698 21.8177 11 21.8172H22C22.5302 21.8177 23.0386 22.0125 23.4135 22.3588C23.7885 22.7051 23.9994 23.1746 24 23.6643V37.5181Z" fill="#2E14D2"/>
<path d="M46.261 16.7171C47.7916 16.7171 49.2879 16.2979 50.5606 15.5125C51.8332 14.7271 52.8252 13.6108 53.4109 12.3047C53.9967 10.9987 54.1499 9.56153 53.8513 8.17502C53.5527 6.78851 52.8156 5.51493 51.7333 4.51531C50.651 3.5157 49.272 2.83495 47.7708 2.55916C46.2696 2.28336 44.7135 2.42491 43.2994 2.9659C41.8853 3.50689 40.6766 4.42302 39.8263 5.59844C38.9759 6.77386 38.522 8.15579 38.522 9.56946C38.5243 11.4645 39.3404 13.2813 40.7912 14.6213C42.2421 15.9613 44.2092 16.715 46.261 16.7171ZM46.261 6.11616C47.0005 6.11616 47.7234 6.3187 48.3383 6.69815C48.9532 7.0776 49.4324 7.61693 49.7154 8.24794C49.9984 8.87894 50.0724 9.57329 49.9282 10.2432C49.7839 10.913 49.4278 11.5283 48.9049 12.0113C48.382 12.4943 47.7157 12.8231 46.9904 12.9564C46.2652 13.0896 45.5134 13.0213 44.8302 12.7599C44.1469 12.4985 43.563 12.0559 43.1521 11.488C42.7413 10.9201 42.522 10.2525 42.522 9.56946C42.5232 8.65391 42.9175 7.77618 43.6184 7.12879C44.3194 6.4814 45.2697 6.11723 46.261 6.11616Z" fill="#2E14D2"/>
<path d="M53.2199 22.897C52.6999 21.5162 51.7317 20.3171 50.4471 19.4628C49.1626 18.6086 47.6242 18.1408 46.0414 18.1233C44.4586 18.1057 42.9085 18.5392 41.6021 19.3646C40.2957 20.1901 39.2965 21.3675 38.7407 22.7363L31 41.8012V46.754H39V57.837H52V46.754H60V40.9007L53.2199 22.897ZM56 43.0596H48V54.1427H43V43.0596H35V42.4708L42.4861 24.0337C42.7531 23.3761 43.2331 22.8105 43.8607 22.414C44.4882 22.0174 45.2329 21.8092 45.9933 21.8176C46.7536 21.8261 47.4927 22.0508 48.1098 22.4612C48.7269 22.8715 49.192 23.4476 49.4417 24.111L56 41.5242V43.0596Z" fill="#2E14D2"/>
</svg>
