<svg width="40" height="40" viewBox="0 0 40 40" fill="none" xmlns="http://www.w3.org/2000/svg">
<path d="M36.1875 27.3593C35.9111 29.4693 34.8779 31.4071 33.2799 32.8125C31.682 34.2179 29.628 34.9952 27.5 34.9999C15.0938 34.9999 5 24.9061 5 12.4999C5.00469 10.3719 5.78199 8.31793 7.18738 6.71998C8.59277 5.12203 10.5306 4.0888 12.6406 3.81239C13.1785 3.75275 13.7214 3.866 14.1906 4.13571C14.6598 4.40542 15.0308 4.81757 15.25 5.31239L18.3906 12.6405C18.5535 13.0209 18.6189 13.4359 18.5807 13.848C18.5425 14.26 18.4019 14.6559 18.1719 14.9999L15.5781 18.9686C16.7526 21.3522 18.6879 23.2765 21.0781 24.4374L25 21.828C25.3436 21.5964 25.7405 21.4562 26.1534 21.4207C26.5662 21.3851 26.9813 21.4554 27.3594 21.6249L34.6875 24.7499C35.1823 24.969 35.5945 25.3401 35.8642 25.8093C36.1339 26.2785 36.2471 26.8214 36.1875 27.3593ZM25 16.2499C25.3313 16.2454 25.649 16.1172 25.8906 15.8905L31.25 10.5155V13.7499C31.25 14.0814 31.3817 14.3994 31.6161 14.6338C31.8505 14.8682 32.1685 14.9999 32.5 14.9999C32.8315 14.9999 33.1495 14.8682 33.3839 14.6338C33.6183 14.3994 33.75 14.0814 33.75 13.7499V7.49989C33.75 7.16837 33.6183 6.85043 33.3839 6.61601C33.1495 6.38159 32.8315 6.24989 32.5 6.24989H26.25C25.9185 6.24989 25.6005 6.38159 25.3661 6.61601C25.1317 6.85043 25 7.16837 25 7.49989C25 7.83141 25.1317 8.14935 25.3661 8.38377C25.6005 8.61819 25.9185 8.74989 26.25 8.74989H29.4844L24.1094 14.1093C23.8746 14.3463 23.743 14.6663 23.743 14.9999C23.743 15.3334 23.8746 15.6535 24.1094 15.8905C24.351 16.1172 24.6687 16.2454 25 16.2499Z" fill="black"/>
</svg>
